<svg version="1.0" xmlns="http://www.w3.org/2000/svg"
 width="980.000000pt" height="980.000000pt" viewBox="0 0 980.000000 980.000000"
 preserveAspectRatio="xMidYMid meet">
<g transform="translate(0.000000,980.000000) scale(0.100000,-0.100000)"
fill="#000000" stroke="none">
<path d="M4368 7244 c-3 -5 -20 -54 -38 -109 -18 -55 -41 -122 -51 -150 l-19
-50 -171 3 -172 3 134 -102 c74 -56 135 -103 137 -104 2 -2 -85 -260 -104
-309 -7 -18 80 37 221 138 27 20 52 36 56 36 3 0 65 -45 138 -100 73 -55 134
-100 136 -100 1 0 -20 71 -46 158 -27 86 -49 160 -49 164 0 4 61 49 135 100
74 51 135 96 135 101 0 4 -76 7 -168 7 l-168 0 -43 148 c-46 156 -55 180 -63
166z"/>
<path d="M5395 7090 l-48 -160 -169 0 c-92 0 -168 -3 -168 -7 1 -5 60 -48 132
-98 72 -49 132 -95 135 -101 2 -6 -16 -78 -41 -160 -26 -82 -46 -152 -46 -157
0 -4 61 39 135 94 l136 102 42 -29 c229 -161 239 -167 232 -143 -4 13 -29 86
-55 162 l-48 138 47 37 c26 20 86 66 134 102 l88 65 -172 5 -171 5 -50 145
c-28 80 -53 149 -57 153 -4 4 -29 -64 -56 -153z"/>
<path d="M3312 6723 c-12 -38 -32 -95 -45 -128 l-23 -59 -139 2 c-115 2 -137
0 -125 -10 9 -7 59 -46 112 -86 l96 -73 -43 -129 c-24 -72 -41 -130 -38 -130
3 0 48 31 102 68 53 37 102 71 109 76 8 5 50 -21 119 -73 58 -45 108 -79 110
-77 3 2 -11 56 -31 119 -20 63 -36 121 -36 130 0 8 47 47 105 87 58 41 105 77
105 82 0 4 -60 8 -134 8 l-133 0 -39 130 c-22 71 -41 130 -45 130 -3 0 -15
-30 -27 -67z"/>
<path d="M6477 6780 c-3 -8 -22 -68 -42 -132 l-36 -118 -135 0 c-74 0 -134 -3
-134 -7 0 -6 188 -142 217 -158 1 -1 -15 -59 -37 -130 -22 -71 -38 -130 -36
-132 1 -2 51 33 110 77 64 49 111 78 119 74 6 -4 56 -39 111 -76 54 -38 100
-67 102 -65 3 2 -15 61 -39 129 l-45 125 109 83 c60 45 109 84 109 87 0 3 -62
3 -137 2 l-138 -4 -42 120 c-51 147 -49 143 -56 125z"/>
<path d="M2431 5899 l-33 -100 -104 3 c-57 2 -104 0 -104 -3 0 -3 36 -32 80
-65 43 -32 79 -62 80 -66 0 -3 -15 -49 -33 -102 -19 -53 -32 -96 -30 -96 3 0
43 27 90 60 l86 59 83 -64 c46 -36 84 -59 84 -52 0 6 -11 48 -25 92 -14 44
-25 87 -25 95 1 8 37 39 81 69 64 43 78 56 65 63 -9 5 -22 8 -28 7 -7 -1 -47
-1 -89 0 l-77 1 -28 100 c-16 55 -31 100 -34 100 -3 0 -21 -45 -39 -101z"/>
<path d="M7320 5902 l-32 -102 -76 -1 c-89 -2 -121 -4 -127 -11 -3 -2 33 -30
79 -62 l85 -57 -14 -47 c-8 -26 -21 -69 -30 -97 -8 -27 -15 -53 -15 -58 0 -4
39 22 86 57 l85 65 84 -60 c46 -32 86 -59 89 -59 2 0 -10 45 -29 100 l-34 100
42 33 c23 19 59 46 80 62 20 15 37 30 37 34 0 3 -46 5 -103 3 l-103 -3 -23 71
c-12 40 -29 86 -36 103 l-13 31 -32 -102z"/>
<path d="M4837 5869 c-110 -26 -218 -116 -270 -227 -29 -61 -32 -75 -32 -167
0 -92 3 -106 32 -167 171 -361 691 -290 764 104 29 157 -53 330 -196 414 -80
47 -205 65 -298 43z"/>
<path d="M3274 5322 c-11 -6 -144 -242 -144 -254 0 -3 73 -8 163 -11 621 -24
1110 -331 1377 -865 121 -242 199 -540 229 -880 11 -116 21 -145 21 -59 0 76
25 265 56 416 54 270 174 558 311 751 281 393 722 616 1259 639 l150 6 -67
124 c-37 69 -75 129 -85 134 -29 16 -317 2 -437 -22 -373 -75 -686 -270 -913
-571 -79 -105 -185 -315 -219 -435 -31 -107 -55 -249 -55 -325 -1 -84 -16 -40
-23 65 -21 299 -179 630 -412 860 -290 287 -660 435 -1085 435 -63 0 -120 -4
-126 -8z"/>
<path d="M2794 4748 c-211 -310 -303 -444 -459 -673 -79 -115 -188 -275 -242
-355 -54 -79 -187 -275 -296 -434 -108 -159 -196 -290 -195 -292 2 -1 93 13
203 31 438 73 624 89 1025 89 262 0 363 -4 465 -17 507 -68 890 -214 1223
-463 98 -74 240 -202 287 -260 l38 -46 -64 47 c-216 159 -550 317 -867 409
-684 199 -1403 177 -2021 -60 -109 -42 -385 -173 -379 -180 2 -1 71 8 153 21
884 138 1888 69 2910 -200 138 -37 271 -71 296 -77 42 -9 64 -5 240 42 389
105 714 175 1049 224 681 102 1418 106 2000 11 79 -13 146 -22 148 -20 6 6
-276 141 -373 178 -205 80 -441 138 -695 174 -174 24 -603 24 -785 0 -516 -69
-966 -228 -1350 -480 -49 -32 -99 -66 -110 -75 -42 -36 71 86 132 143 160 147
313 253 503 349 366 186 749 272 1260 283 365 8 733 -22 1160 -96 91 -16 166
-28 168 -26 4 4 -1298 1917 -1321 1940 -10 10 79 -164 308 -605 403 -773 485
-933 481 -937 -2 -3 -62 3 -133 14 -182 26 -694 26 -867 0 -340 -51 -573 -121
-841 -252 -235 -114 -402 -231 -571 -400 -133 -132 -248 -281 -317 -410 -9
-16 -16 -27 -17 -22 -1 20 127 256 188 348 128 190 270 332 532 528 158 119
263 184 405 252 211 100 443 164 692 190 143 14 415 7 562 -16 57 -9 105 -14
108 -11 6 5 -292 591 -587 1153 -80 154 -86 162 -119 168 -40 8 -249 -4 -256
-15 -2 -4 106 -229 240 -499 135 -271 245 -494 245 -494 0 -1 -55 -3 -123 -5
-625 -14 -1214 -361 -1602 -942 -124 -185 -231 -412 -289 -612 -13 -46 -27
-76 -29 -68 -3 8 -15 49 -27 90 -102 350 -354 750 -634 1005 -365 332 -772
505 -1251 531 l-120 6 242 487 c133 267 242 491 243 497 0 16 -236 29 -271 16
-21 -9 -53 -62 -164 -274 -281 -536 -536 -1048 -523 -1048 7 1 54 7 103 15
132 22 429 30 560 16 260 -28 479 -89 701 -196 153 -73 231 -121 409 -255 321
-241 482 -423 645 -733 34 -65 60 -120 58 -122 -2 -3 -15 14 -28 38 -95 171
-333 434 -510 564 -376 276 -803 431 -1334 484 -155 15 -591 6 -745 -16 -63
-8 -118 -14 -122 -13 -5 2 49 113 119 248 71 135 238 457 371 715 134 259 259
498 278 533 19 34 32 62 30 62 -3 0 -68 -91 -143 -202z"/>
</g>
</svg>
